<?xml version="1.0" standalone="no"?>
<!DOCTYPE svg PUBLIC "-//W3C//DTD SVG 20010904//EN"
 "http://www.w3.org/TR/2001/REC-SVG-20010904/DTD/svg10.dtd">
<svg version="1.0" xmlns="http://www.w3.org/2000/svg"
 width="640.000000pt" height="640.000000pt" viewBox="0 0 640.000000 640.000000"
 preserveAspectRatio="xMidYMid meet">
<metadata>
Created by potrace 1.11, written by Peter Selinger 2001-2013
</metadata>
<g transform="translate(0.000000,640.000000) scale(0.100000,-0.100000)"
fill="#000000" stroke="none">
<path d="M3045 5430 c-22 -4 -58 -11 -80 -14 -118 -21 -297 -100 -415 -184
-65 -46 -212 -188 -240 -231 -8 -13 -27 -38 -41 -57 -15 -18 -32 -47 -39 -64
-7 -16 -17 -30 -23 -30 -6 0 -7 -3 -4 -7 4 -3 1 -16 -6 -27 -36 -58 -89 -221
-105 -326 -14 -92 -6 -350 13 -402 2 -7 6 -24 9 -38 16 -94 80 -236 165 -365
48 -74 233 -265 256 -265 7 0 15 -4 17 -9 8 -24 253 -148 328 -166 94 -23 179
-37 254 -40 50 -3 93 -5 96 -6 3 -1 10 0 15 1 6 1 30 4 55 5 25 2 60 6 78 9
17 3 46 8 63 11 18 3 40 10 50 16 11 5 19 7 19 4 0 -10 234 87 250 105 3 3 17
11 32 19 15 8 37 22 47 33 11 10 25 18 30 18 5 0 54 44 108 98 99 97 164 185
222 297 34 68 83 195 74 195 -3 0 -1 6 4 13 6 6 14 32 18 57 4 25 10 61 13 80
8 45 8 273 0 325 -37 239 -146 453 -320 627 -110 111 -203 173 -373 249 -33
15 -137 46 -180 55 -22 4 -47 9 -55 11 -28 8 -295 10 -335 3z"/>
<path d="M869 4795 c-2 -2 -17 -6 -34 -8 -237 -43 -451 -252 -502 -491 -9 -41
-8 -233 2 -271 4 -16 8 -37 10 -45 2 -8 4 -16 5 -17 2 -2 3 -6 5 -10 1 -5 8
-21 15 -38 7 -16 14 -32 14 -35 4 -23 77 -122 124 -168 89 -87 141 -121 247
-157 75 -25 82 -26 188 -30 112 -3 186 11 279 53 89 41 134 73 206 150 64 67
136 194 147 257 2 17 9 45 14 62 17 57 6 231 -19 303 -57 169 -171 303 -321
379 -46 24 -86 43 -89 42 -3 0 -23 5 -45 11 -37 10 -238 21 -246 13z"/>
<path d="M5349 4795 c-2 -2 -17 -6 -34 -8 -118 -22 -229 -81 -322 -173 -60
-60 -135 -166 -131 -184 1 -3 -5 -16 -12 -30 -8 -14 -15 -29 -17 -35 -25 -94
-30 -136 -28 -222 2 -54 6 -107 8 -118 19 -76 67 -185 104 -235 51 -68 157
-159 229 -196 42 -21 81 -40 86 -40 4 -1 9 -2 11 -4 1 -1 9 -3 17 -5 8 -2 29
-6 45 -10 38 -10 230 -11 271 -2 231 50 441 260 491 491 9 41 8 233 -2 271 -4
17 -8 37 -10 45 -2 8 -4 16 -5 18 -2 1 -3 5 -5 10 -1 4 -8 21 -15 37 -7 17
-14 32 -14 35 -1 3 -16 29 -34 58 -31 50 -119 145 -173 185 -23 18 -144 81
-164 85 -5 2 -28 8 -50 14 -37 10 -238 21 -246 13z"/>
<path d="M638 3205 c-2 -2 -32 -7 -66 -10 -208 -19 -409 -158 -500 -345 -23
-47 -44 -99 -47 -117 -3 -18 -9 -42 -14 -55 -15 -41 -13 -466 3 -525 32 -117
135 -209 257 -229 47 -7 127 -6 141 2 4 3 8 2 8 -3 0 -4 33 -7 72 -5 40 1 110
2 156 2 100 -1 104 -1 170 0 29 0 57 -2 62 -5 6 -3 10 -3 10 2 0 4 20 7 45 5
33 -3 45 0 46 9 4 87 63 284 121 408 37 80 98 188 125 221 6 8 29 39 51 68 94
126 265 278 399 354 l53 30 -42 39 c-24 22 -72 54 -108 73 -56 29 -89 42 -170
63 -18 5 -207 14 -275 13 -27 -1 -59 0 -70 0 -11 1 -27 1 -35 1 -8 0 -44 0
-80 0 -36 0 -72 0 -80 0 -8 -1 -31 -1 -50 0 -19 0 -42 0 -50 0 -60 -2 -113 -1
-119 4 -5 2 -10 2 -13 0z"/>
<path d="M5169 3206 c-2 -2 -42 -6 -89 -9 -94 -7 -185 -32 -263 -74 -59 -32
-59 -32 -109 -75 l-38 -31 35 -24 c19 -13 38 -23 44 -23 5 0 11 -3 13 -7 2 -5
30 -26 62 -48 75 -51 248 -219 315 -307 28 -37 51 -70 51 -72 0 -3 14 -25 31
-50 73 -109 168 -358 185 -486 10 -79 15 -82 129 -80 55 1 107 1 115 1 73 -3
193 0 201 4 5 4 9 3 9 -2 0 -4 30 -7 67 -6 209 7 239 10 284 32 52 25 129 88
129 107 0 7 4 14 10 16 5 2 19 30 31 62 19 56 20 76 16 300 -4 227 -7 272 -22
296 -4 6 -9 22 -11 37 -3 15 -22 59 -42 98 -52 100 -165 210 -268 262 -43 22
-83 41 -89 42 -5 1 -28 7 -50 13 -32 9 -118 15 -260 20 -15 0 -126 -2 -165 -3
-19 -1 -42 -1 -50 0 -8 1 -37 0 -65 0 -27 -1 -57 -1 -65 0 -31 2 -95 0 -99 -4
-2 -2 -11 0 -21 5 -10 5 -19 8 -21 6z"/>
<path d="M2488 2884 c-3 -2 -49 -6 -104 -8 -54 -3 -119 -8 -144 -11 -182 -28
-430 -145 -559 -264 -24 -23 -48 -41 -53 -41 -4 0 -8 -4 -8 -9 0 -5 -17 -27
-38 -48 -44 -44 -122 -148 -122 -162 0 -5 -3 -11 -8 -13 -21 -9 -140 -283
-142 -326 0 -8 -10 -67 -17 -97 -6 -30 -15 -221 -12 -295 0 -36 1 -72 0 -80
-4 -51 3 -157 14 -210 10 -50 75 -166 117 -209 85 -88 189 -138 302 -147 91
-7 284 -6 296 1 5 3 10 3 10 -2 0 -4 33 -7 72 -6 127 5 280 5 284 1 2 -3 26
-2 54 2 27 4 50 4 50 0 0 -3 29 -3 65 0 35 3 72 3 82 -1 9 -3 34 -3 54 1 21 4
43 4 49 0 6 -4 26 -4 43 -1 18 4 48 4 68 1 20 -4 59 -4 88 0 28 3 51 4 51 1 0
-3 33 -5 72 -3 108 4 250 2 260 -4 4 -3 8 -2 8 3 0 4 27 8 60 8 33 0 60 -2 60
-5 0 -6 109 -4 116 2 2 3 24 2 49 -2 24 -4 50 -3 57 1 6 4 16 5 20 3 12 -8
236 -7 248 1 5 3 10 3 10 -2 0 -4 33 -7 72 -6 127 5 280 5 284 1 2 -3 26 -2
54 2 27 4 50 4 50 1 0 -3 61 -6 135 -6 74 0 135 3 135 7 0 4 6 5 13 3 6 -3 37
2 67 10 30 8 63 17 72 19 29 8 121 71 161 112 42 42 104 141 111 177 3 12 9
36 14 52 5 17 8 63 8 102 -1 40 3 73 7 73 5 0 6 4 3 8 -4 7 -8 126 -5 172 3
39 -11 201 -21 250 -6 30 -13 65 -16 77 -9 44 -57 169 -87 228 -141 273 -378
478 -662 574 -131 44 -205 55 -407 62 -27 1 -57 -5 -70 -13 -19 -12 -110 -50
-128 -53 -3 -1 -43 -13 -90 -27 -79 -25 -171 -47 -230 -55 -14 -2 -92 -5 -175
-7 -131 -3 -268 8 -350 28 -11 2 -41 9 -66 15 -49 11 -173 53 -224 76 -68 30
-104 43 -107 39z"/>
</g>
</svg>
